<svg width="25" height="24" viewBox="0 0 25 24" fill="none" xmlns="http://www.w3.org/2000/svg">
<path fill-rule="evenodd" clip-rule="evenodd" d="M2.5 3.82609C2.5 3.36985 2.8731 3 3.33333 3H6.66667C7.06385 3 7.40584 3.27788 7.48379 3.66396L8.18369 7.13043H21.6667C21.915 7.13043 22.1504 7.24024 22.3087 7.42994C22.4671 7.61963 22.5318 7.86943 22.4852 8.11127L21.1507 15.0483C21.0364 15.6188 20.7233 16.1313 20.2663 16.496C19.8115 16.8589 19.243 17.0525 18.6595 17.0435H10.5739C9.99031 17.0525 9.42183 16.8589 8.96706 16.496C8.5102 16.1314 8.19719 15.6192 8.08277 15.049C8.08273 15.0488 8.08282 15.0493 8.08277 15.049L6.69066 8.15412C6.68501 8.13132 6.68032 8.10814 6.67663 8.08463L5.9836 4.65217H3.33333C2.8731 4.65217 2.5 4.28232 2.5 3.82609ZM8.51727 8.78261L9.71737 14.7265C9.75547 14.9166 9.85983 15.0874 10.0122 15.209C10.1645 15.3306 10.3552 15.3952 10.5507 15.3915L10.5667 15.3913H18.6667L18.6826 15.3915C18.8782 15.3952 19.0688 15.3306 19.2212 15.209C19.3728 15.088 19.4769 14.9182 19.5154 14.7291L20.6594 8.78261H8.51727ZM8.33333 20.3478C8.33333 19.4354 9.07952 18.6957 10 18.6957C10.9205 18.6957 11.6667 19.4354 11.6667 20.3478C11.6667 21.2603 10.9205 22 10 22C9.07952 22 8.33333 21.2603 8.33333 20.3478ZM17.5 20.3478C17.5 19.4354 18.2462 18.6957 19.1667 18.6957C20.0871 18.6957 20.8333 19.4354 20.8333 20.3478C20.8333 21.2603 20.0871 22 19.1667 22C18.2462 22 17.5 21.2603 17.5 20.3478Z" fill="white"/>
</svg>
