<svg width="24" height="24" viewBox="0 0 24 24" fill="none" xmlns="http://www.w3.org/2000/svg">
<circle cx="12" cy="12" r="12" fill="black"/>
<path d="M16 14.9688V17H8.0625V15.2812L11.7188 11.4375C12.0417 11.0677 12.3021 10.737 12.5 10.4453C12.6979 10.1484 12.8411 9.88021 12.9297 9.64062C13.0234 9.40104 13.0703 9.1849 13.0703 8.99219C13.0703 8.66406 13.0208 8.39062 12.9219 8.17188C12.8281 7.94792 12.6875 7.77865 12.5 7.66406C12.3177 7.54948 12.0911 7.49219 11.8203 7.49219C11.5495 7.49219 11.3125 7.57031 11.1094 7.72656C10.9062 7.88281 10.7474 8.09635 10.6328 8.36719C10.5234 8.63802 10.4688 8.94271 10.4688 9.28125H7.82812C7.82812 8.58333 7.9974 7.94531 8.33594 7.36719C8.67969 6.78906 9.15625 6.32812 9.76562 5.98438C10.375 5.63542 11.0807 5.46094 11.8828 5.46094C12.7214 5.46094 13.4245 5.59115 13.9922 5.85156C14.5599 6.11198 14.987 6.48958 15.2734 6.98438C15.5651 7.47396 15.7109 8.0651 15.7109 8.75781C15.7109 9.15365 15.6484 9.53385 15.5234 9.89844C15.3984 10.263 15.2188 10.625 14.9844 10.9844C14.75 11.3385 14.4635 11.7031 14.125 12.0781C13.7917 12.4531 13.4115 12.8516 12.9844 13.2734L11.5156 14.9688H16Z" fill="white"/>
</svg>
